<svg xmlns="http://www.w3.org/2000/svg" viewBox="0 0 259.19 144.87"><defs><style>.cls-1{fill:#fff;}</style></defs><title>Asset 1</title><g id="Layer_2" data-name="Layer 2"><g id="Layer_1-2" data-name="Layer 1"><g id="Group_46" data-name="Group 46"><g id="Group_44" data-name="Group 44"><path id="Path_9" data-name="Path 9" class="cls-1" d="M39.78,19.46Q39.78,30,33,35.28q-5.49,4.29-13.68,4.28a17.15,17.15,0,0,1-7.55-1.41V49.82c0,1.88.31,3.15.94,3.81.89.95,2.76,1.42,5.59,1.42V57H0V55.05c2.52,0,4-.4,4.54-1.21s.68-3,.68-6.64V12.32c0-2-.23-3.32-.71-3.87s-1.74-1-3.8-1.27V5.89A39.57,39.57,0,0,0,11.76,2V5.89a23,23,0,0,1,6.69-3.25A28.26,28.26,0,0,1,24.8,2a14.15,14.15,0,0,1,9,3.57Q39.78,10.51,39.78,19.46Zm-7.13,1.91a18.36,18.36,0,0,0-3.36-10.91,11.44,11.44,0,0,0-9.71-5.28,14.58,14.58,0,0,0-7.82,2.6V26.57a12.64,12.64,0,0,0,2.33,8,8.14,8.14,0,0,0,6.8,3q5.49,0,8.79-5.15A19.89,19.89,0,0,0,32.65,21.37Z"/><path id="Path_10" data-name="Path 10" class="cls-1" d="M103.29,54.58,87.83,62.5l-1.22-8.56a16.19,16.19,0,0,1-7.19,8,27,27,0,0,1-10.33,3.62,24.94,24.94,0,0,1-3.23.24,15.87,15.87,0,0,1-8.11-2.05q-5.4-3.18-6.43-10.58L46.91,21.82c-.35-2.48-1.06-4-2.15-4.61-.91-.51-2.68-.58-5.33-.21L39,14.19,55.31,11.9l5.75,40.79q.7,5.14,4.48,7.09a12.27,12.27,0,0,0,7.42.91,15.29,15.29,0,0,0,8.2-3.75,12.67,12.67,0,0,0,4.38-10.55L81.28,16c-.28-1.95-1-3.15-2-3.62s-3.18-.47-6.27,0l-.39-2.8L89.83,7.07l5.46,38.87q.75,5.43,1.83,6.51c.75.77,2,1,3.78.79a14.49,14.49,0,0,0,2.13-.55Z"/><path id="Path_11" data-name="Path 11" class="cls-1" d="M108,50.9q4.74.18,6.21-1.21c1.09-.82,1.69-2.87,1.82-6.16l.84-24q.3-9,5.19-14.26,5.2-5.58,14-5.3,9.59.35,16.11,10.16l.35-9.58c2.46,1.19,4.55,2.17,6.24,2.94q7.14,3.26,10,3.36l-.08,2.86c-2.52-.09-4.13.19-4.85.84a6.21,6.21,0,0,0-1.05,3.73l-1.1,31.73q-.16,4.52.84,5.59c.75.8,2.64,1.26,5.67,1.36L168,56l-24.22-.87.1-3q7.77.28,8-5.41l1-27.85a11.35,11.35,0,0,0-4.23-9.26A15.11,15.11,0,0,0,139,5.87a11.25,11.25,0,0,0-8.27,2.81Q126.8,12.16,126.56,19l-.86,24.83c-.13,3.54.48,5.8,1.81,6.8q1.28,1,5.69,1.13l-.1,3-25.25-.86Z"/><path id="Path_12" data-name="Path 12" class="cls-1" d="M207.27,48.83q-5.84,8.06-12.54,9.66a17.75,17.75,0,0,1-9.37-.65A19,19,0,0,1,172.6,46.17,24.09,24.09,0,0,1,171,37.45,28.79,28.79,0,0,1,172.3,29q2.82-9.24,9.53-14.07a18.25,18.25,0,0,1,10.89-3.61,22.68,22.68,0,0,1,6.54,1,26.05,26.05,0,0,1,11.19,7.12c2.21,2.29,3.31,4.62,3.31,7a7.59,7.59,0,0,1-.35,2.28,4.19,4.19,0,0,1-4.1,3.07,6.66,6.66,0,0,1-1.77-.27c-.9-.29-1.49-1.62-1.76-4a33.76,33.76,0,0,0-1.19-6.73,8,8,0,0,0-5.38-5.11,13.06,13.06,0,0,0-3.72-.57q-9.59,0-14.39,15.75a26.22,26.22,0,0,0-1.28,7.71,16.33,16.33,0,0,0,1.47,7,13.11,13.11,0,0,0,8.47,7.27,14.79,14.79,0,0,0,8.59,0,15.61,15.61,0,0,0,7.75-5.22Z"/><path id="Path_13" data-name="Path 13" class="cls-1" d="M259.19,55l-16.95,1.49-.16-2q3.55-.3,4.4-1.71a7.26,7.26,0,0,0,.37-3.9l-1.46-16.66a9.81,9.81,0,0,0-2.89-6,7.16,7.16,0,0,0-5.33-2.5,8.54,8.54,0,0,0-4.88,1.62,17.2,17.2,0,0,0-4.18,4.37l1.71,19.44q.33,3.89,1.4,5a4.2,4.2,0,0,0,3.11.89h1.24l.17,2-16.92,1.48-.17-2c2.35-.2,3.79-.65,4.32-1.34s.59-2.27.36-4.94l-3.5-39.87c-.14-1.64-.47-2.7-1-3.17a7.92,7.92,0,0,0-3.29-1.09l-.11-1.29L225.52.05l2.36,27.08q4.62-6.87,11.7-7.49a10.9,10.9,0,0,1,8.09,2.58,10.45,10.45,0,0,1,4.06,7.38l1.62,18.68c.19,2.17.52,3.49,1,4q1,1,4.69.73Z"/></g><g id="Group_45" data-name="Group 45"><path id="Path_14" data-name="Path 14" class="cls-1" d="M74.75,82.25q.06.65.06,1.23,0,4.15-3,4.4c-.61.06-2.86-1.61-6.73-5q-2.8-2.48-5.47-2.22A4,4,0,0,0,56,84a18.81,18.81,0,0,0-.59,7l1.12,13L66.9,103l-.48,3.73-9.59.84,2.49,28.62c.17,1.91.58,3.13,1.24,3.67,1,.86,3.22,1.14,6.65.85L67.4,143l-21.49,1.88-.22-2.27c2.49-.23,4.11-.7,4.88-1.43q1.57-1.51,1.21-5.73l-2.39-27.21-7.41.64.45-3.73,6.65-.56-.56-6.29c-.07-.93-.11-1.85-.11-2.75A20.89,20.89,0,0,1,51.3,84.38a14.47,14.47,0,0,1,11.75-7,18.39,18.39,0,0,1,8.38.77A4.73,4.73,0,0,1,74.75,82.25Z"/><path id="Path_15" data-name="Path 15" class="cls-1" d="M107,105.59a19.71,19.71,0,0,1,2.93,9.89,16.58,16.58,0,0,1-8.16,14.14,17.65,17.65,0,0,1-9,2.59,16.48,16.48,0,0,1-4-.52q-6.53-1.69-10.6-8.76a18.87,18.87,0,0,1-2.81-9.34,13.81,13.81,0,0,1,.86-4.8q2-5.49,8.3-9.12a17.1,17.1,0,0,1,8.65-2.4,17.53,17.53,0,0,1,2.8.23Q103.06,98.69,107,105.59Zm-5.57,3.88q-3.45-6-7.47-8.4a9.37,9.37,0,0,0-4.8-1.48,8.09,8.09,0,0,0-4.06,1.16q-4,2.32-4.26,7.63c-.14,3.53,1,7.42,3.45,11.66a21.14,21.14,0,0,0,7.06,7.69,9.92,9.92,0,0,0,5.14,1.63,7.63,7.63,0,0,0,3.84-1.07,8.67,8.67,0,0,0,4.78-7.91Q105.14,115.87,101.46,109.47Z"/><path id="Path_16" data-name="Path 16" class="cls-1" d="M165.48,105.45q0,13.36-8.42,20.91a23.82,23.82,0,0,1-16.39,6.36q-11.76,0-18.78-7.37t-6.89-19q0-13.12,8.06-19.81,6.76-5.62,17.61-5.63a25.07,25.07,0,0,1,16.5,5.78Q165.48,93.46,165.48,105.45Zm-10.16.86q0-10.31-3.4-16.52-3.88-7.07-11.25-7.07-8.19,0-12.32,8.64a36.31,36.31,0,0,0-3.19,15.82q0,9,3.4,15.28,4,7.44,11.25,7.45,15.51,0,15.5-23.6Z"/><path id="Path_17" data-name="Path 17" class="cls-1" d="M212.17,128.43l-10.92,3.64-.25-5.78a19.92,19.92,0,0,1-4.26,4.24,11.19,11.19,0,0,1-5.9,1.9A17.13,17.13,0,0,1,179,128.62q-6-4.94-6.38-14.53a18.13,18.13,0,0,1,5.5-14.26,17.75,17.75,0,0,1,12.12-5.38,16.54,16.54,0,0,1,9.82,2.89L199.54,83c0-1.48-.37-2.45-.95-2.92s-2.1-.72-4.38-.64v-1.3l11.51-4.9,1.87,53.47,4.58.45ZM201,124.3l-.65-18a10.39,10.39,0,0,0-2.75-6.49,8.74,8.74,0,0,0-7.32-3.47q-5.35.17-8.39,5.3a20,20,0,0,0-2.47,11,20.77,20.77,0,0,0,3.43,11.34q3.59,5.27,9.2,5.08,4.6-.18,8.95-4.83Z"/></g></g></g></g></svg>